<?xml version="1.0" encoding="UTF-8"?>
<svg  viewBox="0 0 72 72" version="1.1" xmlns="http://www.w3.org/2000/svg" xmlns:xlink="http://www.w3.org/1999/xlink">
    <!-- Generator: Sketch 49.2 (51160) - http://www.bohemiancoding.com/sketch -->
    <title>Spotify</title>
    <desc>Created with Sketch.</desc>
    <defs></defs>
    <g id="Page-1" stroke="none" stroke-width="1" fill="none" fill-rule="evenodd">
        <g id="Social-Icons---Rounded-Black" transform="translate(-488.000000, -827.000000)">
            <g id="Spotify" transform="translate(488.000000, 827.000000)">
                <path d="M8,72 L64,72 C68.418278,72 72,68.418278 72,64 L72,8 C72,3.581722 68.418278,-8.11624501e-16 64,0 L8,0 C3.581722,8.11624501e-16 -5.41083001e-16,3.581722 0,8 L0,64 C5.41083001e-16,68.418278 3.581722,72 8,72 Z" id="Rounded" fill="#000000"></path>
                <path d="M50.16,33.36 C42.48,28.8 29.64,28.32 22.32,30.6 C21.12,30.96 19.92,30.24 19.56,29.16 C19.2,27.96 19.92,26.76 21,26.4 C29.52,23.88 43.56,24.36 52.44,29.64 C53.52,30.24 53.88,31.68 53.28,32.76 C52.68,33.6 51.24,33.96 50.16,33.36 M49.92,40.08 C49.32,40.92 48.24,41.28 47.4,40.68 C40.92,36.72 31.08,35.52 23.52,37.92 C22.56,38.16 21.48,37.68 21.24,36.72 C21,35.76 21.48,34.68 22.44,34.44 C31.2,31.8 42,33.12 49.44,37.68 C50.16,38.04 50.52,39.24 49.92,40.08 M47.04,46.68 C46.56,47.4 45.72,47.64 45,47.16 C39.36,43.68 32.28,42.96 23.88,44.88 C23.04,45.12 22.32,44.52 22.08,43.8 C21.84,42.96 22.44,42.24 23.16,42 C32.28,39.96 40.2,40.8 46.44,44.64 C47.28,45 47.4,45.96 47.04,46.68 M36,12 C22.8,12 12,22.8 12,36 C12,49.2 22.8,60 36,60 C49.2,60 60,49.2 60,36 C60,22.8 49.32,12 36,12" fill="#FFFFFF"></path>
            </g>
        </g>
    </g>
</svg>