<?xml version="1.0" standalone="no"?>
<!DOCTYPE svg PUBLIC "-//W3C//DTD SVG 20010904//EN"
 "http://www.w3.org/TR/2001/REC-SVG-20010904/DTD/svg10.dtd">
<svg version="1.0" xmlns="http://www.w3.org/2000/svg"
 width="137.000000pt" height="137.000000pt" viewBox="0 0 137.000000 137.000000"
 preserveAspectRatio="xMidYMid meet">
<metadata>
Created by potrace 1.14, written by Peter Selinger 2001-2017
</metadata>
<g transform="translate(0.000000,137.000000) scale(0.100000,-0.100000)"
fill="#000000" stroke="none">
<path d="M437 1321 c-32 -23 -60 -41 -63 -41 -15 0 -74 -79 -79 -105 -4 -16
-8 -39 -10 -50 -2 -11 -4 -21 -5 -22 -15 -19 -22 -155 -23 -448 -2 -315 -1
-332 19 -365 11 -19 32 -41 46 -48 24 -11 172 -165 191 -197 12 -22 67 -45
106 -45 40 0 81 23 81 46 0 8 5 14 11 14 5 0 8 4 4 9 -3 5 4 12 15 16 11 3 20
10 20 15 0 5 9 12 20 15 23 7 35 18 75 70 17 22 41 50 54 64 14 14 26 37 27
51 2 13 8 26 14 28 5 2 8 8 5 13 -3 5 -1 18 6 30 6 12 13 42 15 68 6 73 11 94
28 128 10 18 19 45 22 59 3 15 11 42 19 60 7 18 11 35 8 37 -2 3 2 19 11 35 9
17 15 45 15 63 -1 19 3 45 8 59 5 14 9 34 9 45 -1 11 3 23 8 26 11 9 17 149 6
149 -6 0 -16 15 -23 33 -11 25 -29 39 -83 66 -38 18 -96 50 -129 72 -33 21
-78 41 -100 44 -22 4 -47 7 -55 9 -8 1 -25 7 -36 14 -12 6 -57 14 -100 18
l-79 6 -58 -41z"/>
</g>
</svg>
